<?xml version="1.0" standalone="no"?>
<!DOCTYPE svg PUBLIC "-//W3C//DTD SVG 20010904//EN"
 "http://www.w3.org/TR/2001/REC-SVG-20010904/DTD/svg10.dtd">
<svg version="1.0" xmlns="http://www.w3.org/2000/svg"
 width="865.000000pt" height="865.000000pt" viewBox="0 0 865.000000 865.000000"
 preserveAspectRatio="xMidYMid meet">
<metadata>
Created by potrace 1.11, written by Peter Selinger 2001-2013
</metadata>
<g transform="translate(0.000000,865.000000) scale(0.100000,-0.100000)"
fill="#000000" stroke="none">
<path d="M3198 7544 c-2 -2 -22 -5 -43 -8 -22 -2 -42 -5 -45 -6 -3 -1 -9 -3
-15 -4 -217 -35 -455 -165 -630 -341 -110 -112 -104 -105 -161 -190 -36 -54
-70 -119 -118 -228 -18 -39 -59 -191 -71 -262 -3 -22 -8 -107 -9 -190 -3 -131
3 -208 27 -335 9 -47 54 -204 67 -235 4 -11 20 -51 35 -90 32 -83 117 -259
127 -263 5 -2 8 -8 8 -13 0 -12 82 -143 92 -147 4 -2 8 -8 8 -13 0 -10 52 -87
109 -161 20 -25 46 -59 58 -75 12 -15 30 -38 40 -49 10 -12 36 -43 58 -69 90
-106 258 -279 381 -390 48 -44 95 -87 104 -95 8 -8 40 -35 70 -60 30 -25 60
-49 67 -55 6 -5 26 -21 44 -35 18 -14 37 -29 43 -35 53 -49 410 -304 576 -411
25 -16 47 -32 48 -36 2 -5 8 -8 14 -8 6 0 33 -16 59 -35 27 -19 52 -35 55 -35
3 0 31 -16 62 -36 l57 -37 60 33 c55 31 227 138 250 157 6 4 64 44 129 88 155
104 138 92 311 222 371 277 725 609 917 859 12 16 25 31 28 34 4 3 43 57 88
120 45 63 85 120 89 126 8 10 20 30 46 77 6 12 17 29 23 37 44 57 160 317 204
455 23 71 37 129 55 223 20 101 27 351 12 447 -4 28 -9 61 -11 75 -36 232
-197 519 -379 675 -32 28 -66 57 -75 66 -39 36 -282 178 -282 165 0 -2 -32 9
-71 25 -40 16 -74 27 -77 25 -2 -3 -12 -1 -21 3 -56 30 -326 46 -481 28 -30
-3 -55 -7 -55 -7 0 -1 -7 -3 -16 -5 -9 -1 -43 -11 -75 -20 -33 -9 -66 -18 -74
-20 -46 -9 -236 -100 -260 -125 -3 -3 -23 -18 -45 -35 -84 -62 -243 -243 -228
-259 4 -3 2 -6 -4 -6 -5 0 -18 -18 -28 -40 -10 -22 -21 -40 -25 -40 -3 0 -15
19 -27 43 -33 66 -136 199 -194 248 -28 24 -56 49 -63 54 -105 92 -338 185
-531 212 -45 6 -302 12 -307 7z"/>
<path d="M1340 5045 c-164 -27 -285 -72 -450 -166 -14 -8 -27 -16 -30 -19 -3
-3 -23 -17 -45 -32 -38 -27 -51 -37 -126 -103 -47 -41 -158 -172 -171 -201 -6
-13 -14 -24 -18 -24 -21 0 -148 -298 -164 -383 -2 -15 -7 -35 -10 -45 -19 -59
-30 -366 -16 -442 5 -25 11 -63 14 -85 15 -102 68 -285 107 -372 10 -24 19
-46 19 -49 0 -11 121 -247 141 -276 11 -14 19 -29 19 -32 0 -14 161 -242 244
-346 119 -147 265 -301 460 -485 27 -25 166 -146 184 -160 7 -5 21 -17 30 -26
17 -16 237 -189 283 -222 13 -9 56 -40 94 -68 88 -64 393 -269 400 -269 3 0
15 -9 27 -20 11 -10 35 -26 52 -34 17 -8 51 -29 76 -46 l45 -30 3 1693 c2
1334 0 1697 -10 1717 -90 180 -276 352 -475 439 -73 32 -221 74 -303 86 -82
13 -304 13 -380 0z"/>
<path d="M6988 5055 c-2 -2 -21 -5 -43 -9 -38 -5 -66 -11 -110 -21 -11 -2 -42
-10 -70 -16 -27 -6 -54 -15 -60 -19 -5 -4 -28 -13 -49 -20 -179 -58 -389 -239
-490 -423 l-26 -48 0 -1694 0 -1695 88 54 c145 88 475 311 577 388 148 113
294 226 310 240 201 172 265 230 374 340 103 104 166 171 231 248 30 36 57 67
60 70 42 40 230 311 299 430 59 104 164 336 176 390 2 8 11 35 20 60 9 25 20
63 25 85 9 42 13 60 35 185 13 75 14 340 1 410 -35 189 -93 344 -184 485 -44
70 -144 190 -192 231 -14 12 -36 32 -50 44 -147 130 -377 236 -593 274 -66 11
-319 20 -329 11z"/>
<path d="M5580 4052 c-153 -155 -240 -235 -390 -360 -62 -51 -197 -156 -220
-171 -14 -8 -27 -18 -30 -21 -3 -3 -27 -22 -55 -41 -27 -18 -52 -37 -55 -40
-5 -7 -278 -191 -295 -199 -5 -3 -42 -26 -82 -52 -40 -27 -75 -48 -78 -48 -4
0 -19 -9 -34 -20 l-28 -19 -99 60 c-54 33 -106 67 -115 75 -8 8 -18 14 -22 14
-3 0 -35 20 -70 45 -36 25 -67 45 -71 45 -3 0 -14 7 -23 15 -20 16 -226 164
-251 180 -9 6 -21 15 -27 20 -7 6 -27 21 -45 35 -43 32 -193 152 -200 159 -3
4 -39 35 -80 71 -125 108 -302 279 -368 358 -11 12 -22 22 -26 22 -3 0 -6
-691 -6 -1535 l0 -1535 1410 0 1410 0 0 1540 c0 847 -3 1540 -7 1540 -5 0 -69
-62 -143 -138z"/>
</g>
</svg>
